<svg xmlns="http://www.w3.org/2000/svg" version="1.2" viewBox="611.6 126.2 125.8 147.6">
	<title>CATCHLABS-ai</title>
	<defs>
		<linearGradient id="g1" x1="611.6" y1="138.1" x2="737.4" y2="138.1" gradientUnits="userSpaceOnUse">
			<stop offset="0" stop-color="#ffb230"/>
			<stop offset="1" stop-color="#fe6821"/>
		</linearGradient>
		<linearGradient id="g2" x1="614.5" y1="124.2" x2="734.5" y2="124.2" gradientUnits="userSpaceOnUse">
			<stop offset="0" stop-color="#ffb230"/>
			<stop offset="1" stop-color="#fe6821"/>
		</linearGradient>
	</defs>
	<style>
		.s0 { fill: url(#g1) } 
		.s1 { fill: url(#g2) } 
	</style>
	<g id="Layer 1">
		<g id="&lt;Group&gt;">
			<g id="&lt;Group&gt;">
				<path id="&lt;Path&gt;" class="s0" d="m737.4 207.8l-48.2 66h-29.3l-48.3-66 7.8-11.9 4.2-6.5-10.6-49.3 34.8 55.8h-16l26.3 16.4 4 6.4 12.4 20 12.5-20 4-6.4 26.2-16.4h-16l34.9-55.8-10.7 49.3 4.3 6.5z"/>
				<path id="&lt;Path&gt;" class="s1" d="m619.5 140.4l-5-2.3 7.1-11.9 0.1 15.5 29.1 27.6h12.4l11.3 15.4 11.3-15.4h12.5l29-27.6 0.1-15.5 7.1 11.9-4.9 2.3q-0.5 0.2-0.8 0.6l-1.3 1.8-33.1 53.1-14.3 22.8h-11.1l-14.3-22.8-33.1-53.1-1.4-1.8q-0.3-0.4-0.7-0.6z"/>
			</g>
		</g>
	</g>
</svg>